<svg width="180" height="180" viewBox="0 0 180 180" fill="none" xmlns="http://www.w3.org/2000/svg">
  <rect width="180" height="180" rx="36" fill="#111111" />
  <g transform="translate(20 20)">
    <circle cx="70" cy="70" r="60" fill="#f8f8f7" />
    <circle cx="35" cy="28" r="20" fill="#ffffff" />
    <circle cx="105" cy="28" r="20" fill="#ffffff" />
    <circle cx="35" cy="28" r="10" fill="#ff2fa7" />
    <circle cx="105" cy="28" r="10" fill="#ff2fa7" />
    <circle cx="28" cy="76" r="14" fill="#ffffff" />
    <circle cx="112" cy="76" r="14" fill="#ffffff" />
    <circle cx="26" cy="80" r="6" fill="#ff2fa7" />
    <circle cx="114" cy="80" r="6" fill="#ff2fa7" />
    <circle cx="52" cy="64" r="8" fill="#111111" />
    <circle cx="88" cy="64" r="8" fill="#111111" />
    <circle cx="54" cy="62" r="3" fill="#ffffff" />
    <circle cx="90" cy="62" r="3" fill="#ffffff" />
    <ellipse cx="60" cy="66" rx="3.2" ry="2.4" fill="#f72faa" />
    <path d="M60 68 q-4 4 -8 1 M60 68 q4 4 8 1" stroke="#f8f8f7" stroke-width="1.6" stroke-linecap="round" fill="none" opacity="0.55" />
    <g stroke="#f8f8f7" stroke-width="1.4" stroke-linecap="round" opacity="0.4">
      <line x1="34" y1="66" x2="20" y2="63" />
      <line x1="34" y1="68" x2="20" y2="70" />
      <line x1="86" y1="66" x2="100" y2="63" />
      <line x1="86" y1="68" x2="100" y2="70" />
    </g>
  </g>
</svg>
