<svg xmlns="http://www.w3.org/2000/svg" viewBox="0 0 100 100" fill="none">
  <ellipse cx="28" cy="90" rx="11" ry="7" fill="#ffffff" />
  <ellipse cx="72" cy="90" rx="11" ry="7" fill="#ffffff" />
  <ellipse cx="28" cy="90" rx="5" ry="3" fill="#7dff30" opacity="0.9" />
  <ellipse cx="72" cy="90" rx="5" ry="3" fill="#7dff30" opacity="0.9" />
  <ellipse cx="50" cy="60" rx="40" ry="36" fill="#ffffff" />
  <ellipse cx="50" cy="68" rx="24" ry="22" fill="#111111" opacity="0.14" />
  <circle cx="26" cy="26" r="12" fill="#ffffff" />
  <circle cx="26" cy="26" r="6" fill="#ff2a9e" />
  <circle cx="74" cy="26" r="12" fill="#ffffff" />
  <circle cx="74" cy="26" r="6" fill="#ff2a9e" />
  <circle cx="22" cy="64" r="13" fill="#ffffff" />
  <circle cx="78" cy="64" r="13" fill="#ffffff" />
  <circle cx="20" cy="68" r="5" fill="#ff2a9e" opacity="0.8" />
  <circle cx="80" cy="68" r="5" fill="#ff2a9e" opacity="0.8" />
  <circle cx="39" cy="57" r="5.2" fill="#111111" />
  <circle cx="61" cy="57" r="5.2" fill="#111111" />
  <circle cx="40.8" cy="55.2" r="1.7" fill="#ffffff" />
  <circle cx="62.8" cy="55.2" r="1.7" fill="#ffffff" />
  <ellipse cx="50" cy="66" rx="3.2" ry="2.4" fill="#7dff30" />
  <path d="M42 68 q4 4 8 1 M50 68 q4 4 8 1" stroke="#ffffff" stroke-width="1.6" stroke-linecap="round" fill="none" opacity="0.55" />
  <g stroke="#ffffff" stroke-width="1.4" stroke-linecap="round" opacity="0.4">
    <line x1="34" y1="66" x2="20" y2="63" />
    <line x1="34" y1="68" x2="20" y2="70" />
    <line x1="66" y1="66" x2="80" y2="63" />
    <line x1="66" y1="68" x2="80" y2="70" />
  </g>
  <ellipse cx="34" cy="80" rx="6" ry="8" fill="#ffffff" transform="rotate(5.80122 34 80)" />
  <ellipse cx="66" cy="80" rx="6" ry="8" fill="#ffffff" transform="rotate(-5.80122 66 80)" />
</svg>
